<svg xmlns="http://www.w3.org/2000/svg" xmlns:xlink="http://www.w3.org/1999/xlink" width="500" zoomAndPan="magnify" viewBox="0 0 375 374.999991" height="500" preserveAspectRatio="xMidYMid meet" version="1.0"><defs><g/><clipPath id="4be7222744"><path d="M 21.605469 21.605469 L 353.105469 21.605469 L 353.105469 353.105469 L 21.605469 353.105469 Z M 21.605469 21.605469 " clip-rule="nonzero"/></clipPath><clipPath id="8115f05874"><path d="M 116 99.074219 L 259 99.074219 L 259 276 L 116 276 Z M 116 99.074219 " clip-rule="nonzero"/></clipPath></defs><g clip-path="url(#4be7222744)"><path fill="#000000" d="M 187.441406 353.386719 C 96.046875 353.386719 21.605469 278.945312 21.605469 187.441406 C 21.605469 95.933594 96.046875 21.605469 187.441406 21.605469 C 278.835938 21.605469 353.273438 96.046875 353.273438 187.441406 C 353.386719 278.945312 278.945312 353.386719 187.441406 353.386719 Z M 187.441406 24.414062 C 97.507812 24.414062 24.414062 97.507812 24.414062 187.441406 C 24.414062 277.375 97.617188 350.582031 187.441406 350.582031 C 277.261719 350.582031 350.582031 277.375 350.582031 187.441406 C 350.582031 97.507812 277.375 24.414062 187.441406 24.414062 Z M 187.441406 24.414062 " fill-opacity="1" fill-rule="nonzero"/></g><g clip-path="url(#8115f05874)"><path fill="#00c2cb" d="M 210.320312 146.941406 C 203.160156 144.480469 195.511719 143.117188 187.542969 143.117188 C 179.574219 143.117188 171.925781 144.480469 164.769531 146.941406 C 161.488281 142.148438 159.539062 136.550781 159.539062 131.074219 C 159.539062 124.285156 162.53125 120.710938 167.371094 118.8125 C 168.46875 119.941406 169.992188 120.648438 171.6875 120.648438 C 174.191406 120.648438 176.339844 119.113281 177.238281 116.9375 C 178.746094 116.832031 180.304688 116.769531 181.917969 116.734375 C 182.777344 119.015625 184.960938 120.648438 187.542969 120.648438 C 190.128906 120.648438 192.3125 119.015625 193.167969 116.734375 C 194.78125 116.769531 196.34375 116.832031 197.847656 116.9375 C 198.75 119.113281 200.898438 120.648438 203.402344 120.648438 C 205.09375 120.648438 206.621094 119.941406 207.714844 118.8125 C 212.566406 120.710938 215.550781 124.285156 215.550781 131.074219 C 215.550781 136.550781 213.609375 142.148438 210.320312 146.941406 Z M 224.445312 153.644531 C 230.320312 145.488281 233.84375 135.816406 233.84375 126.378906 C 233.84375 103.335938 213.117188 99.066406 187.542969 99.066406 C 161.972656 99.066406 141.246094 103.335938 141.246094 126.378906 C 141.246094 135.816406 144.765625 145.488281 150.640625 153.644531 C 129.988281 166.464844 116.179688 186.171875 116.179688 212.714844 C 116.179688 244.441406 135.34375 275.933594 187.542969 275.933594 C 238.421875 275.933594 258.90625 243.558594 258.90625 212.714844 C 258.90625 186.171875 245.109375 166.464844 224.445312 153.644531 " fill-opacity="1" fill-rule="nonzero"/></g><path fill="#00c2cb" d="M 242.675781 181.804688 C 249.851562 194.65625 251.097656 207.625 245.472656 210.773438 C 239.839844 213.910156 229.457031 206.039062 222.28125 193.1875 C 215.105469 180.34375 213.859375 167.371094 219.480469 164.226562 C 225.117188 161.089844 235.492188 168.960938 242.675781 181.804688 " fill-opacity="1" fill-rule="nonzero"/><path fill="#000000" d="M 191.261719 229.414062 C 191.019531 229.414062 190.777344 229.402344 190.523438 229.382812 C 182.792969 228.765625 180.785156 218.761719 176.789062 198.832031 C 176.09375 195.359375 175.195312 190.878906 174.242188 186.703125 C 174.210938 187.316406 174.183594 187.90625 174.160156 188.449219 C 173.898438 194.347656 173.648438 199.917969 172.28125 203.710938 C 171.5625 205.714844 169.84375 207.191406 167.757812 207.605469 C 157.945312 209.546875 60.75 208.148438 52.566406 207.710938 C 49.222656 207.53125 46.660156 204.675781 46.839844 201.335938 C 47.019531 197.992188 49.875 195.425781 53.214844 195.609375 C 63.425781 196.15625 142.050781 197.039062 161.535156 196.054688 C 161.796875 193.617188 161.933594 190.5625 162.054688 187.90625 C 162.480469 178.300781 162.851562 170.007812 167.429688 165.964844 C 169.246094 164.363281 171.574219 163.582031 173.984375 163.777344 C 181.921875 164.414062 184.226562 174.253906 188.675781 196.449219 C 189.566406 200.886719 190.714844 206.601562 191.847656 211.175781 C 194.265625 204.679688 196.945312 195.464844 198.515625 190.074219 C 199.777344 185.734375 200.871094 181.980469 201.820312 179.140625 C 203.074219 175.378906 204.820312 170.238281 210.144531 170.65625 C 214.863281 171.035156 216.28125 174.847656 219.105469 182.441406 C 220.480469 186.148438 224.054688 195.765625 226.472656 197.816406 C 253.390625 198.6875 280.269531 198.546875 321.929688 197.332031 C 325.304688 197.28125 328.066406 199.871094 328.164062 203.214844 C 328.261719 206.5625 325.628906 209.351562 322.28125 209.449219 C 279.90625 210.683594 252.6875 210.808594 225.203125 209.902344 C 225.050781 209.898438 224.902344 209.886719 224.75 209.871094 C 217.8125 209.113281 213.613281 201.503906 210.238281 193.179688 C 210.207031 193.273438 210.179688 193.367188 210.15625 193.460938 C 202.652344 219.238281 198.949219 229.414062 191.261719 229.414062 Z M 191.261719 229.414062 " fill-opacity="1" fill-rule="nonzero"/><path fill="#00a8ad" d="M 61.601562 188.84375 C 63.300781 188.808594 64.671875 188.769531 65.703125 191.03125 C 66.492188 192.765625 65.90625 194.492188 65.902344 196.347656 C 65.886719 200.589844 66.023438 204.742188 65.988281 208.898438 C 65.960938 211.574219 66.769531 212.65625 63.988281 213.46875 C 62.058594 214.03125 59.597656 213.785156 57.546875 213.730469 C 53.367188 213.621094 54.867188 208.894531 55.109375 205.230469 C 55.550781 198.558594 52.761719 188.492188 58.851562 188.867188 Z M 61.601562 188.84375 " fill-opacity="1" fill-rule="nonzero"/><path fill="#00a8ad" d="M 68.539062 175.667969 C 65.152344 175.589844 62.417969 175.515625 60.363281 180.027344 C 58.785156 183.488281 59.953125 186.9375 59.964844 190.636719 C 59.996094 199.101562 59.71875 207.394531 59.792969 215.691406 C 59.84375 221.035156 58.230469 223.1875 63.785156 224.808594 C 67.632812 225.933594 72.542969 225.441406 76.636719 225.332031 C 84.980469 225.113281 81.984375 215.679688 81.5 208.367188 C 80.621094 195.050781 86.183594 174.960938 74.03125 175.703125 Z M 68.539062 175.667969 " fill-opacity="1" fill-rule="nonzero"/><path fill="#00b1b6" d="M 83.449219 155.78125 C 77.359375 155.644531 72.441406 155.507812 68.742188 163.621094 C 65.910156 169.84375 68.007812 176.046875 68.03125 182.699219 C 68.082031 197.917969 67.585938 212.824219 67.722656 227.738281 C 67.808594 237.34375 64.910156 241.214844 74.898438 244.136719 C 81.816406 246.15625 90.644531 245.273438 98.007812 245.078125 C 113.007812 244.679688 107.621094 227.71875 106.75 214.574219 C 105.167969 190.636719 115.167969 154.515625 93.320312 155.851562 Z M 83.449219 155.78125 " fill-opacity="1" fill-rule="nonzero"/><path fill="#00a8ad" d="M 102.953125 171.875 C 102.957031 171.808594 102.957031 171.742188 102.941406 171.664062 C 101.933594 166.667969 99.859375 162.121094 94.8125 160.207031 C 92.582031 159.363281 89.6875 159.148438 87.570312 160.433594 C 85.300781 161.8125 87.320312 163.808594 88.855469 164.648438 C 91.046875 165.84375 93.484375 166.722656 95.214844 168.59375 C 97.1875 170.730469 97.085938 173.265625 97.792969 175.890625 C 98.324219 177.855469 100.785156 178.835938 102.167969 177.015625 C 103.347656 175.46875 103.039062 173.6875 102.953125 171.875 Z M 102.953125 171.875 " fill-opacity="1" fill-rule="nonzero"/><path fill="#00a8ad" d="M 316.519531 189.628906 C 318.214844 189.589844 319.585938 189.554688 320.617188 191.8125 C 321.40625 193.546875 320.820312 195.277344 320.816406 197.132812 C 320.800781 201.371094 320.9375 205.527344 320.902344 209.683594 C 320.878906 212.359375 321.683594 213.4375 318.902344 214.253906 C 316.972656 214.816406 314.515625 214.570312 312.460938 214.515625 C 308.28125 214.402344 309.78125 209.675781 310.023438 206.011719 C 310.464844 199.34375 307.679688 189.273438 313.769531 189.648438 Z M 316.519531 189.628906 " fill-opacity="1" fill-rule="nonzero"/><path fill="#00a8ad" d="M 307.519531 176.734375 C 310.910156 176.660156 313.644531 176.585938 315.699219 181.097656 C 317.277344 184.558594 316.109375 188.007812 316.097656 191.707031 C 316.066406 200.171875 316.34375 208.464844 316.269531 216.757812 C 316.21875 222.101562 317.832031 224.257812 312.277344 225.878906 C 308.429688 227.003906 303.519531 226.511719 299.425781 226.402344 C 291.082031 226.179688 294.078125 216.746094 294.558594 209.433594 C 295.441406 196.121094 289.878906 176.027344 302.03125 176.773438 Z M 307.519531 176.734375 " fill-opacity="1" fill-rule="nonzero"/><path fill="#00b1b6" d="M 292.613281 156.847656 C 298.703125 156.710938 303.617188 156.574219 307.316406 164.691406 C 310.152344 170.910156 308.054688 177.117188 308.03125 183.765625 C 307.980469 198.988281 308.476562 213.894531 308.339844 228.808594 C 308.25 238.414062 311.152344 242.285156 301.164062 245.203125 C 294.246094 247.226562 285.417969 246.339844 278.054688 246.144531 C 263.054688 245.746094 268.441406 228.785156 269.308594 215.640625 C 270.894531 191.703125 260.894531 155.582031 282.742188 156.917969 Z M 292.613281 156.847656 " fill-opacity="1" fill-rule="nonzero"/><path fill="#00a8ad" d="M 273.109375 172.945312 C 273.105469 172.878906 273.105469 172.808594 273.121094 172.734375 C 274.128906 167.734375 276.203125 163.1875 281.25 161.277344 C 283.480469 160.429688 286.375 160.214844 288.492188 161.503906 C 290.757812 162.882812 288.742188 164.878906 287.203125 165.714844 C 285.015625 166.910156 282.578125 167.789062 280.847656 169.660156 C 278.875 171.796875 278.976562 174.335938 278.269531 176.960938 C 277.738281 178.925781 275.277344 179.902344 273.890625 178.082031 C 272.714844 176.535156 273.023438 174.757812 273.109375 172.945312 Z M 273.109375 172.945312 " fill-opacity="1" fill-rule="nonzero"/><g fill="#4d4d4d" fill-opacity="1"><g transform="translate(66.611105, 154.869312)"><g><path d="M -18.40625 -21.09375 C -17.269531 -24 -15.742188 -26.15625 -13.828125 -27.5625 C -11.910156 -28.96875 -9.789062 -29.238281 -7.46875 -28.375 L -7.0625 -28.203125 L -9.75 -21.375 L -9.890625 -21.4375 C -10.554688 -21.695312 -11.203125 -21.671875 -11.828125 -21.359375 C -12.453125 -21.046875 -12.960938 -20.394531 -13.359375 -19.40625 C -13.734375 -18.4375 -13.878906 -17.632812 -13.796875 -17 C -13.710938 -16.375 -13.460938 -15.976562 -13.046875 -15.8125 C -12.453125 -15.570312 -11.875 -15.75 -11.3125 -16.34375 C -10.75 -16.945312 -10.003906 -17.96875 -9.078125 -19.40625 C -7.992188 -21.082031 -7.015625 -22.429688 -6.140625 -23.453125 C -5.265625 -24.472656 -4.191406 -25.238281 -2.921875 -25.75 C -1.660156 -26.257812 -0.226562 -26.21875 1.375 -25.625 C 4.0625 -24.570312 5.695312 -22.878906 6.28125 -20.546875 C 6.863281 -18.222656 6.554688 -15.539062 5.359375 -12.5 C 3.960938 -8.945312 2.285156 -6.421875 0.328125 -4.921875 C -1.628906 -3.421875 -4.113281 -3.257812 -7.125 -4.4375 L -4.40625 -11.34375 C -3.269531 -10.894531 -2.394531 -10.890625 -1.78125 -11.328125 C -1.164062 -11.773438 -0.609375 -12.628906 -0.109375 -13.890625 C 0.242188 -14.804688 0.441406 -15.609375 0.484375 -16.296875 C 0.523438 -16.984375 0.238281 -17.445312 -0.375 -17.6875 C -0.925781 -17.90625 -1.46875 -17.734375 -2 -17.171875 C -2.539062 -16.609375 -3.269531 -15.628906 -4.1875 -14.234375 C -5.3125 -12.535156 -6.320312 -11.164062 -7.21875 -10.125 C -8.125 -9.082031 -9.25 -8.300781 -10.59375 -7.78125 C -11.945312 -7.269531 -13.46875 -7.347656 -15.15625 -8.015625 C -17.644531 -8.992188 -19.097656 -10.675781 -19.515625 -13.0625 C -19.941406 -15.457031 -19.570312 -18.132812 -18.40625 -21.09375 Z M -18.40625 -21.09375 "/></g></g></g><g fill="#4d4d4d" fill-opacity="1"><g transform="translate(81.804784, 120.945465)"><g><path d="M -3.796875 -24.375 L 10.40625 -13.046875 L 5.515625 -6.90625 L -8.6875 -18.234375 L -13.703125 -11.96875 L -18.59375 -15.875 L -3.703125 -34.515625 L 1.1875 -30.609375 Z M -3.796875 -24.375 "/></g></g></g><g fill="#4d4d4d" fill-opacity="1"><g transform="translate(106.194413, 92.972869)"><g><path d="M 12 -28.4375 C 12.832031 -27.195312 13.25 -25.851562 13.25 -24.40625 C 13.25 -22.957031 12.773438 -21.566406 11.828125 -20.234375 L 22.015625 -14.765625 L 14.71875 -9.875 L 6.15625 -14.84375 L 3.71875 -13.21875 L 8.6875 -5.828125 L 2.1875 -1.46875 L -11.421875 -21.75 L 0.984375 -30.078125 C 2.441406 -31.046875 3.867188 -31.597656 5.265625 -31.734375 C 6.671875 -31.867188 7.957031 -31.628906 9.125 -31.015625 C 10.289062 -30.410156 11.25 -29.550781 12 -28.4375 Z M 5.5625 -23.734375 C 5.195312 -24.265625 4.71875 -24.585938 4.125 -24.703125 C 3.53125 -24.816406 2.976562 -24.703125 2.46875 -24.359375 L -1.8125 -21.484375 L 0.703125 -17.734375 L 4.984375 -20.609375 C 5.492188 -20.953125 5.804688 -21.425781 5.921875 -22.03125 C 6.035156 -22.632812 5.914062 -23.203125 5.5625 -23.734375 Z M 5.5625 -23.734375 "/></g></g></g><g fill="#4d4d4d" fill-opacity="1"><g transform="translate(139.664562, 72.824804)"><g><path d="M -4.34375 -24.171875 L 15.9375 -30.109375 L 17.59375 -24.484375 L 4.84375 -20.75 L 5.78125 -17.515625 L 16.6875 -20.703125 L 18.265625 -15.3125 L 7.359375 -12.125 L 8.40625 -8.5625 L 21.390625 -12.359375 L 23.03125 -6.734375 L 2.515625 -0.734375 Z M -4.34375 -24.171875 "/></g></g></g><g fill="#4d4d4d" fill-opacity="1"><g transform="translate(175.624101, 63.864268)"><g><path d="M 20.078125 0.578125 L 10.171875 -11.578125 L 9.828125 0.28125 L 2.625 0.078125 L 3.34375 -24.328125 L 10.203125 -24.125 L 20.078125 -11.8125 L 20.4375 -23.828125 L 27.640625 -23.625 L 26.921875 0.78125 Z M 20.078125 0.578125 "/></g></g></g><g fill="#4d4d4d" fill-opacity="1"><g transform="translate(216.328257, 66.905477)"><g><path d="M 22.65625 -18.0625 C 24.851562 -17.25 26.703125 -16.179688 28.203125 -14.859375 C 29.703125 -13.535156 30.722656 -12.03125 31.265625 -10.34375 C 31.816406 -8.664062 31.75 -6.894531 31.0625 -5.03125 L 24.046875 -7.65625 C 24.398438 -8.613281 24.265625 -9.539062 23.640625 -10.4375 C 23.015625 -11.34375 22.101562 -12.019531 20.90625 -12.46875 C 19.175781 -13.113281 17.695312 -13.140625 16.46875 -12.546875 C 15.238281 -11.960938 14.3125 -10.828125 13.6875 -9.140625 L 12.890625 -7.015625 C 12.253906 -5.328125 12.207031 -3.859375 12.75 -2.609375 C 13.300781 -1.359375 14.441406 -0.410156 16.171875 0.234375 C 17.367188 0.679688 18.492188 0.78125 19.546875 0.53125 C 20.597656 0.28125 21.289062 -0.285156 21.625 -1.171875 L 16.4375 -3.109375 L 18.171875 -7.765625 L 30.375 -3.203125 L 25.609375 9.5625 L 21.8125 8.140625 L 21.921875 5.625 C 19.191406 6.601562 16.140625 6.460938 12.765625 5.203125 C 8.972656 3.785156 6.492188 1.734375 5.328125 -0.953125 C 4.160156 -3.640625 4.304688 -6.953125 5.765625 -10.890625 C 7.210938 -14.765625 9.390625 -17.300781 12.296875 -18.5 C 15.210938 -19.695312 18.664062 -19.550781 22.65625 -18.0625 Z M 22.65625 -18.0625 "/></g></g></g><g fill="#4d4d4d" fill-opacity="1"><g transform="translate(253.886471, 83.16657)"><g><path d="M 24.375 -3.859375 L 13.078125 10.375 L 6.921875 5.5 L 18.21875 -8.734375 L 11.9375 -13.734375 L 15.828125 -18.625 L 34.515625 -3.78125 L 30.625 1.109375 Z M 24.375 -3.859375 "/></g></g></g><g fill="#4d4d4d" fill-opacity="1"><g transform="translate(281.966386, 107.349738)"><g><path d="M 10.5625 15.90625 L 18.28125 10.78125 L 13.515625 3.59375 L 5.796875 8.71875 L 1.453125 2.1875 L 21.796875 -11.328125 L 26.140625 -4.796875 L 18.71875 0.140625 L 23.484375 7.328125 L 30.90625 2.390625 L 35.25 8.921875 L 14.90625 22.4375 Z M 10.5625 15.90625 "/></g></g></g><g fill="#4d4d4d" fill-opacity="1"><g transform="translate(302.552842, 143.265827)"><g/></g></g><g fill="#4d4d4d" fill-opacity="1"><g transform="translate(66.276493, 284.168395)"><g><path d="M 22.3125 -5.625 C 24.332031 -3.53125 25.40625 -1.367188 25.53125 0.859375 C 25.65625 3.085938 24.75 5.140625 22.8125 7.015625 L 18.640625 2.6875 C 19.453125 1.894531 19.890625 1.050781 19.953125 0.15625 C 20.015625 -0.738281 19.664062 -1.582031 18.90625 -2.375 C 18.019531 -3.289062 17.082031 -3.6875 16.09375 -3.5625 C 15.101562 -3.445312 14.097656 -2.890625 13.078125 -1.890625 L 11.75 -0.625 C 10.738281 0.351562 10.148438 1.335938 9.984375 2.328125 C 9.828125 3.316406 10.179688 4.257812 11.046875 5.15625 C 11.890625 6.03125 12.75 6.472656 13.625 6.484375 C 14.507812 6.503906 15.363281 6.117188 16.1875 5.328125 L 20.21875 9.515625 C 18.289062 11.367188 16.242188 12.195312 14.078125 12 C 11.910156 11.8125 9.785156 10.632812 7.703125 8.46875 C 5.378906 6.0625 4.234375 3.648438 4.265625 1.234375 C 4.304688 -1.179688 5.53125 -3.550781 7.9375 -5.875 C 10.34375 -8.195312 12.757812 -9.335938 15.1875 -9.296875 C 17.613281 -9.253906 19.988281 -8.03125 22.3125 -5.625 Z M 22.3125 -5.625 "/></g></g></g><g fill="#4d4d4d" fill-opacity="1"><g transform="translate(92.643668, 309.220698)"><g><path d="M 20.734375 -10.421875 C 23.578125 -8.609375 25.3125 -6.476562 25.9375 -4.03125 C 26.5625 -1.582031 25.976562 1.035156 24.1875 3.828125 C 22.414062 6.609375 20.285156 8.234375 17.796875 8.703125 C 15.316406 9.171875 12.65625 8.5 9.8125 6.6875 C 6.957031 4.863281 5.21875 2.726562 4.59375 0.28125 C 3.976562 -2.15625 4.5625 -4.769531 6.34375 -7.5625 C 8.144531 -10.375 10.28125 -12.007812 12.75 -12.46875 C 15.21875 -12.925781 17.878906 -12.242188 20.734375 -10.421875 Z M 18.203125 -6.46875 C 17.054688 -7.195312 15.96875 -7.40625 14.9375 -7.09375 C 13.90625 -6.78125 13.015625 -6.039062 12.265625 -4.875 L 11.28125 -3.34375 C 10.539062 -2.164062 10.242188 -1.046875 10.390625 0.015625 C 10.546875 1.085938 11.195312 1.988281 12.34375 2.71875 C 13.46875 3.4375 14.550781 3.644531 15.59375 3.34375 C 16.644531 3.039062 17.539062 2.300781 18.28125 1.125 L 19.265625 -0.40625 C 20.015625 -1.570312 20.304688 -2.691406 20.140625 -3.765625 C 19.972656 -4.847656 19.328125 -5.75 18.203125 -6.46875 Z M 18.203125 -6.46875 "/></g></g></g><g fill="#4d4d4d" fill-opacity="1"><g transform="translate(125.517272, 328.125496)"><g><path d="M 14.40625 5 L 14.53125 2.109375 L 8.03125 -0.140625 L 6.34375 2.203125 L 0.265625 0.09375 L 13.453125 -16.09375 L 20.375 -13.703125 L 20.71875 7.171875 Z M 10.71875 -3.859375 L 14.734375 -2.46875 L 15.078125 -9.734375 L 14.953125 -9.78125 Z M 10.71875 -3.859375 "/></g></g></g><g fill="#4d4d4d" fill-opacity="1"><g transform="translate(160.324456, 338.467892)"><g><path d="M 13.46875 -18.65625 C 16.363281 -18.351562 18.578125 -17.390625 20.109375 -15.765625 C 21.640625 -14.148438 22.265625 -12 21.984375 -9.3125 L 16 -9.9375 C 16.113281 -11.0625 15.90625 -11.988281 15.375 -12.71875 C 14.84375 -13.445312 14.03125 -13.867188 12.9375 -13.984375 C 11.675781 -14.117188 10.703125 -13.820312 10.015625 -13.09375 C 9.335938 -12.363281 8.925781 -11.285156 8.78125 -9.859375 L 8.59375 -8.046875 C 8.445312 -6.648438 8.628906 -5.515625 9.140625 -4.640625 C 9.660156 -3.773438 10.535156 -3.273438 11.765625 -3.140625 C 12.972656 -3.015625 13.921875 -3.234375 14.609375 -3.796875 C 15.296875 -4.359375 15.703125 -5.207031 15.828125 -6.34375 L 21.609375 -5.734375 C 21.328125 -3.078125 20.289062 -1.125 18.5 0.125 C 16.71875 1.375 14.335938 1.84375 11.359375 1.53125 C 8.035156 1.1875 5.609375 0.078125 4.078125 -1.796875 C 2.546875 -3.671875 1.953125 -6.273438 2.296875 -9.609375 C 2.640625 -12.929688 3.753906 -15.351562 5.640625 -16.875 C 7.535156 -18.40625 10.144531 -19 13.46875 -18.65625 Z M 13.46875 -18.65625 "/></g></g></g><g fill="#4d4d4d" fill-opacity="1"><g transform="translate(196.627274, 340.673162)"><g><path d="M 15.203125 -2 L 14.234375 -9.375 L 7.359375 -8.46875 L 8.328125 -1.09375 L 2.09375 -0.28125 L -0.46875 -19.71875 L 5.765625 -20.53125 L 6.703125 -13.4375 L 13.578125 -14.34375 L 12.640625 -21.4375 L 18.875 -22.25 L 21.4375 -2.8125 Z M 15.203125 -2 "/></g></g></g><g fill="#4d4d4d" fill-opacity="1"><g transform="translate(233.889952, 333.953857)"><g><path d="M -4.9375 -19.09375 L 10.9375 -25.0625 L 12.59375 -20.671875 L 2.609375 -16.921875 L 3.5625 -14.390625 L 12.109375 -17.59375 L 13.703125 -13.359375 L 5.15625 -10.15625 L 6.203125 -7.375 L 16.375 -11.203125 L 18.03125 -6.796875 L 1.96875 -0.75 Z M -4.9375 -19.09375 "/></g></g></g><g fill="#4d4d4d" fill-opacity="1"><g transform="translate(265.70727, 320.328882)"><g><path d="M 3.21875 -19.546875 L 11.203125 -7.328125 L 5.9375 -3.875 L -2.046875 -16.09375 L -7.4375 -12.578125 L -10.1875 -16.765625 L 5.84375 -27.25 L 8.59375 -23.0625 Z M 3.21875 -19.546875 "/></g></g></g><g fill="#4d4d4d" fill-opacity="1"><g transform="translate(293.884993, 300.130268)"><g><path d="M 10.59375 -10.96875 L 8.03125 -12.296875 L 3.25 -7.359375 L 4.671875 -4.828125 L 0.1875 -0.203125 L -8.9375 -18.96875 L -3.859375 -24.25 L 15.21875 -15.765625 Z M 1 -11.34375 L 3.953125 -14.40625 L -2.484375 -17.765625 L -2.578125 -17.6875 Z M 1 -11.34375 "/></g></g></g></svg>